<svg width="15" height="14" viewBox="0 0 15 14" fill="none" xmlns="http://www.w3.org/2000/svg">
<path fill-rule="evenodd" clip-rule="evenodd" d="M14.2928 5.60271H7.56563C7.56563 6.30231 7.56563 7.70152 7.56135 8.40113H11.4596C11.3102 9.10074 10.7806 10.0802 10.0322 10.5734C10.0315 10.5727 10.0308 10.5776 10.0294 10.5769C9.03443 11.2338 7.72145 11.3829 6.74654 11.187C5.21842 10.8833 4.00907 9.77516 3.51804 8.36755C3.5209 8.36545 3.52304 8.34586 3.52519 8.34446C3.21785 7.47135 3.21785 6.30231 3.52519 5.60271H3.52447C3.92044 4.31683 5.16624 3.14359 6.69651 2.82247C7.92729 2.56152 9.31604 2.84416 10.3374 3.79982C10.4732 3.6669 12.2172 1.96405 12.348 1.82553C8.8586 -1.33459 3.27145 -0.222915 1.18083 3.85789H1.18011C1.18011 3.85789 1.18083 3.85789 1.17654 3.86558C0.142306 5.86996 0.185191 8.23183 1.18369 10.1404C1.18083 10.1425 1.17868 10.1438 1.17654 10.1459C2.08141 11.902 3.72817 13.2487 5.7123 13.7615C7.82008 14.3142 10.5025 13.9364 12.2994 12.3112C12.3001 12.3119 12.3008 12.3126 12.3015 12.3133C13.8239 10.9421 14.7717 8.60612 14.2928 5.60271Z" fill="#E2E4E5"/>
</svg>
