<svg width="15" height="14" viewBox="0 0 15 14" fill="none" xmlns="http://www.w3.org/2000/svg">
<g id="Icon">
<path id="Icon_2" d="M5.09764 12.1113L0.205078 7.24803C0.0683591 7.11131 0 6.93553 0 6.72069C0 6.50585 0.0683591 6.33007 0.205078 6.19335L1.28906 5.13866C1.42578 4.98241 1.59668 4.9043 1.80175 4.9043C2.00683 4.9043 2.1875 4.98241 2.34374 5.13866L5.62499 8.4199L12.6562 1.38867C12.8125 1.23242 12.9931 1.1543 13.1982 1.1543C13.4033 1.1543 13.5742 1.23242 13.7109 1.38867L14.7949 2.44336C14.9316 2.58007 15 2.75586 15 2.9707C15 3.18554 14.9316 3.36132 14.7949 3.49804L6.15233 12.1113C6.01561 12.2676 5.83983 12.3457 5.62499 12.3457C5.41014 12.3457 5.23436 12.2676 5.09764 12.1113Z" fill="#3B53FB"/>
</g>
</svg>
