<svg width="17" height="16" viewBox="0 0 17 16" fill="none" xmlns="http://www.w3.org/2000/svg">
<path fill-rule="evenodd" clip-rule="evenodd" d="M16.4177 16H13.2605V10.3967C13.2605 8.85961 12.5919 8.00218 11.3929 8.00218C10.0882 8.00218 9.31388 8.89563 9.31388 10.3967V16H6.15662V5.59243H9.31388V6.76288C9.31388 6.76288 10.3045 5 12.5367 5C14.7696 5 16.4177 6.3818 16.4177 9.24148C16.4177 12.1004 16.4177 16 16.4177 16ZM1.5395 3C0.689055 3 0 2.32819 0 1.4997C0 0.671815 0.689055 0 1.5395 0C2.38931 0 3.07837 0.671815 3.07837 1.4997C3.079 2.32819 2.38931 3 1.5395 3ZM0 16H3.07837V6H0V16Z" fill="#E2E4E5"/>
</svg>
