<?xml version="1.0"?>
<svg xmlns="http://www.w3.org/2000/svg" xmlns:xlink="http://www.w3.org/1999/xlink" xmlns:svgjs="http://svgjs.com/svgjs" version="1.1" width="512" height="512" x="0" y="0" viewBox="0 0 512.021 512.021" style="enable-background:new 0 0 512 512" xml:space="preserve"><g><g xmlns="http://www.w3.org/2000/svg"><path d="m262.025 210c5.523 0 10-4.477 10-10s-4.477-10-10-10h-.007c-5.523 0-9.997 4.477-9.997 10s4.481 10 10.004 10z" fill="#ffffff" data-original="#000000" style=""/><path d="m312.025 210c5.523 0 10-4.477 10-10s-4.477-10-10-10h-.007c-5.523 0-9.997 4.477-9.997 10s4.481 10 10.004 10z" fill="#ffffff" data-original="#000000" style=""/><path d="m362.025 210c5.523 0 10-4.477 10-10s-4.477-10-10-10h-.007c-5.523 0-9.997 4.477-9.997 10s4.481 10 10.004 10z" fill="#ffffff" data-original="#000000" style=""/><path d="m488.046 315.175c-1.15-4.02-2.904-7.785-5.153-11.194 19.077-31.281 29.128-67.085 29.128-103.98 0-110.28-89.72-200-200-200-52.582 0-100.49 20.397-136.227 53.695-7.529-7.198-17.666-11.4-28.314-11.4-1.222 0-2.441.054-3.653.162-10.882-13.905-27.799-22.305-45.641-22.305-28.578 0-52.383 20.823-57.036 48.096-16.825 1.992-29.916 16.343-29.916 33.694 0 18.709 15.15 33.93 33.773 33.93h77.557c-6.835 20.139-10.543 41.708-10.543 64.128 0 40.846 12.308 78.871 33.41 110.562l-132.551 127.027c-.051.049-.102.099-.152.149-16.97 16.971-16.97 44.584 0 61.555 8.485 8.485 19.631 12.728 30.777 12.728s22.292-4.243 30.777-12.728c.05-.05.1-.101.149-.152l127.023-132.555c31.693 21.103 69.719 33.413 110.567 33.413 31.376 0 61.38-7.05 89.218-20.959h78.282c17.92 0 32.5-14.58 32.5-32.5 0-14.972-10.176-27.612-23.975-31.366zm-443.038-199.303c-7.466 0-13.773-6.379-13.773-13.93 0-7.681 6.249-13.93 13.93-13.93h5.161c5.523 0 10-4.477 10-10 0-20.876 16.984-37.86 37.86-37.86 13.42 0 25.564 6.879 32.485 18.403 2.312 3.849 6.905 5.686 11.232 4.491 1.807-.498 3.683-.751 5.577-.751 5.397 0 10.538 2.114 14.378 5.74-12.574 14.291-23.145 30.384-31.271 47.838h-85.579zm15.064 369.349c-9.178 9.104-24.052 9.081-33.201-.069-9.15-9.149-9.173-24.023-.069-33.202l90.606-86.83 29.492 29.492zm100.667-105.053-28.889-28.89 25.584-24.518c8.343 10.157 17.666 19.479 27.822 27.823zm-28.717-180.168c0-99.252 80.748-180 180-180s180 80.748 180 180c0 31.905-8.346 62.897-24.222 90.239-5.727-3.05-12.239-4.776-19.101-4.776-.469 0-.937.008-1.404.024 16.203-25.562 24.727-54.939 24.727-85.486 0-88.224-71.776-160-160-160-25.928 0-51.693 6.358-74.51 18.387-4.885 2.576-6.758 8.624-4.183 13.51 2.575 4.885 8.624 6.757 13.51 4.183 19.952-10.521 42.492-16.081 65.182-16.081 77.196 0 140 62.804 140 140 0 26.047-7.079 51.118-20.554 73.07-9.381-6.239-20.528-9.749-32.062-9.749-28.578 0-52.384 20.824-57.036 48.096-15.141 1.792-27.257 13.593-29.531 28.583-.261 0-.533 0-.816 0-77.196 0-140-62.804-140-140 0-22.693 5.559-45.231 16.076-65.178 2.576-4.886.704-10.934-4.182-13.51-4.885-2.576-10.934-.703-13.51 4.182-12.027 22.812-18.385 48.576-18.385 74.506 0 88.224 71.775 160 160 160 1.476 0 2.698-.004 3.85-.024 4.378 8.986 12.595 15.754 22.491 18.135-8.641 1.257-17.429 1.889-26.34 1.889-99.253 0-180-80.748-180-180zm347.5 159.041h-133.296c-7.466 0-13.773-6.379-13.773-13.93 0-7.681 6.249-13.93 13.93-13.93h5.161c5.523 0 10-4.477 10-10 0-20.876 16.984-37.86 37.86-37.86 13.421 0 25.564 6.879 32.485 18.402 2.311 3.85 6.904 5.687 11.232 4.491 1.808-.499 3.684-.751 5.577-.751 10.884 0 20.042 8.487 20.851 19.322.389 5.22 4.738 9.256 9.972 9.256 6.893 0 12.5 5.607 12.5 12.5s-5.607 12.5-12.499 12.5z" fill="#ffffff" data-original="#000000" style=""/><path d="m205.955 103.934c5.523 0 10-4.477 10-10s-4.477-10-10-10h-.007c-5.523 0-9.996 4.477-9.996 10s4.48 10 10.003 10z" fill="#ffffff" data-original="#000000" style=""/></g></g></svg>
