<svg width="94" height="94" viewBox="0 0 94 94" fill="none" xmlns="http://www.w3.org/2000/svg">
<g clip-path="url(#clip0)">
<path d="M19.3623 39.4414C20.5091 32.2325 29.5202 24.5322 36.5652 24.3683C37.0567 24.3683 37.5482 24.2045 37.8759 23.8768C38.2036 23.713 38.5313 23.5491 38.6951 23.0576C41.1527 18.4702 39.842 14.8657 35.746 11.9167C30.9947 8.47606 23.4582 11.9167 19.6899 15.0296C10.1873 22.8938 0.520919 36.492 1.01243 49.4355C-0.625945 58.1191 -0.298269 67.4576 2.1593 75.158C3.79767 80.0731 8.54897 82.5307 13.4641 82.8584C18.3792 83.1863 28.5372 84.6606 32.9608 81.7118C37.3844 78.7624 37.7121 73.0281 38.2036 68.1132C38.6951 62.7066 40.1696 52.5484 35.5822 48.2886C30.9947 44.1927 17.8877 48.6163 19.3623 39.4414Z" fill="#323338"/>
<path d="M73.4287 39.4414C74.5755 32.2325 83.5863 24.5322 90.6316 24.3683C91.1231 24.3683 91.6147 24.2045 91.9423 23.8768C92.2703 23.713 92.5977 23.5491 92.7618 23.0576C95.2194 18.4702 93.9087 14.8657 89.8127 11.9167C85.0614 8.47606 77.5249 11.9167 73.7564 15.0296C64.2538 22.8938 54.5873 36.4923 55.0789 49.4355C53.4405 58.1191 53.7682 67.4576 56.2255 75.158C57.8638 80.0731 62.6151 82.5307 67.5305 82.8584C72.4457 83.1863 82.6036 84.6606 87.0272 81.7118C91.4506 78.7624 91.7785 73.0281 92.27 68.1132C92.7615 62.7066 94.2361 52.5484 89.6486 48.2886C85.0612 44.1927 71.7903 48.6163 73.4287 39.4414Z" fill="#323338"/>
</g>
<defs>
<clipPath id="clip0">
<rect width="94" height="94" fill="white"/>
</clipPath>
</defs>
</svg>
