<svg width="17" height="14" viewBox="0 0 17 14" fill="none" xmlns="http://www.w3.org/2000/svg">
<path fill-rule="evenodd" clip-rule="evenodd" d="M5.44972 14C11.4873 14 14.7897 8.6132 14.7897 3.94228C14.7897 3.78894 14.7897 3.63646 14.7801 3.48484C15.4225 2.98518 15.9769 2.36492 16.4177 1.65506C15.8193 1.94107 15.1833 2.12887 14.5329 2.21158C15.2177 1.76964 15.7305 1.07529 15.9761 0.256027C15.3313 0.667812 14.6265 0.958129 13.8913 1.11406C12.6481 -0.309101 10.5689 -0.378019 9.24652 0.960714C8.39452 1.82391 8.03212 3.11096 8.29692 4.33856C5.65772 4.19555 3.19852 2.85337 1.53132 0.645414C0.660125 2.26068 1.10572 4.3265 2.54812 5.36371C2.02572 5.34734 1.51452 5.19572 1.05772 4.92178V4.96657C1.05852 6.64903 2.16012 8.09803 3.69132 8.43143C3.20812 8.57357 2.70092 8.59424 2.20972 8.49173C2.63932 9.93212 3.87212 10.9185 5.27612 10.9469C4.11372 11.9307 2.67772 12.4649 1.19932 12.4631C0.938525 12.4623 0.677725 12.4459 0.417725 12.4123C1.91932 13.4495 3.66572 14 5.44972 13.9974" fill="#E2E4E5"/>
</svg>
